<?xml version="1.0" standalone="no"?>
<!DOCTYPE svg PUBLIC "-//W3C//DTD SVG 20010904//EN"
 "http://www.w3.org/TR/2001/REC-SVG-20010904/DTD/svg10.dtd">
<svg version="1.0" xmlns="http://www.w3.org/2000/svg"
 width="512.000000pt" height="512.000000pt" viewBox="0 0 512.000000 512.000000"
 preserveAspectRatio="xMidYMid meet">

<g transform="translate(0.000000,512.000000) scale(0.100000,-0.100000)"
fill="#14bf98" stroke="none">
<path d="M605 5110 c-270 -49 -494 -252 -577 -520 -33 -108 -33 -293 1 -400
77 -249 248 -422 496 -502 60 -20 91 -23 210 -22 124 0 149 3 220 27 115 38
199 91 290 182 91 91 144 175 182 290 24 71 27 96 27 220 1 119 -2 150 -22
210 -79 246 -254 419 -497 495 -80 24 -249 35 -330 20z"/>
<path d="M2438 5110 c-235 -42 -428 -190 -533 -405 -194 -399 4 -864 430
-1012 73 -25 92 -27 225 -27 133 0 152 2 225 27 426 148 624 613 430 1012 -92
190 -247 322 -450 385 -79 24 -249 35 -327 20z"/>
<path d="M4268 5110 c-276 -50 -492 -242 -580 -515 -20 -60 -23 -91 -22 -210
0 -124 3 -149 27 -220 38 -115 91 -199 182 -290 91 -91 175 -144 290 -182 71
-24 96 -27 220 -27 119 -1 150 2 210 22 248 80 419 253 496 502 34 107 34 292
1 400 -74 239 -254 422 -490 497 -85 27 -251 39 -334 23z"/>
<path d="M575 3274 c-38 -8 -110 -35 -160 -59 -192 -93 -322 -246 -386 -455
-34 -108 -34 -292 0 -400 64 -209 194 -362 386 -455 399 -194 864 4 1012 430
25 73 27 92 27 225 0 133 -2 152 -27 225 -126 361 -484 566 -852 489z"/>
<path d="M2405 3273 c-147 -31 -312 -131 -406 -247 -179 -218 -218 -520 -100
-771 146 -310 476 -477 809 -409 158 32 332 140 427 266 168 222 201 508 86
753 -77 162 -185 272 -346 350 -148 72 -311 92 -470 58z"/>
<path d="M4235 3273 c-251 -53 -454 -236 -542 -488 -25 -73 -27 -92 -27 -225
0 -133 2 -152 27 -225 148 -426 613 -624 1012 -430 192 93 322 246 386 455 34
108 34 292 0 400 -64 209 -194 362 -386 455 -148 72 -311 92 -470 58z"/>
<path d="M573 1446 c-261 -60 -461 -250 -544 -516 -34 -107 -34 -292 -1 -400
74 -239 251 -419 490 -498 66 -22 96 -25 207 -26 110 -1 142 3 205 22 249 78
422 249 502 497 20 60 23 91 22 210 0 124 -3 149 -27 220 -38 115 -91 199
-182 290 -144 144 -285 205 -490 211 -80 2 -141 -1 -182 -10z"/>
<path d="M2405 1446 c-464 -106 -706 -607 -500 -1031 93 -192 246 -322 455
-386 108 -34 292 -34 400 0 209 64 362 194 455 386 194 399 -6 868 -430 1011
-98 33 -281 43 -380 20z"/>
<path d="M4235 1446 c-257 -60 -460 -243 -542 -491 -24 -71 -27 -96 -27 -220
-1 -119 2 -150 22 -210 80 -248 253 -419 502 -497 63 -19 95 -23 205 -22 111
1 141 4 207 26 239 79 416 259 490 498 33 108 33 293 -1 400 -76 247 -247 421
-491 501 -84 27 -277 35 -365 15z"/>
</g>
</svg>
